<svg width="57" height="51" viewBox="0 0 57 51" fill="none" xmlns="http://www.w3.org/2000/svg">
<path d="M9.29071 50.5306V44.9758H48.1743V50.5306H9.29071ZM9.29071 40.8097L5.74952 18.521C5.65694 18.521 5.55232 18.5331 5.43567 18.5571C5.31902 18.5812 5.21533 18.5923 5.1246 18.5905C3.96735 18.5905 2.98415 18.185 2.175 17.374C1.36585 16.563 0.960354 15.5798 0.958502 14.4244C0.956651 13.269 1.36215 12.2858 2.175 11.4748C2.98786 10.6638 3.97106 10.2583 5.1246 10.2583C6.27815 10.2583 7.26228 10.6638 8.07698 11.4748C8.89169 12.2858 9.29626 13.269 9.29071 14.4244C9.29071 14.7484 9.25553 15.0493 9.18516 15.327C9.1148 15.6048 9.03426 15.8594 8.94353 16.0908L17.6229 19.9792L26.3023 8.10578C25.7931 7.73546 25.3765 7.24941 25.0525 6.64764C24.7284 6.04587 24.5664 5.39781 24.5664 4.70346C24.5664 3.54621 24.9719 2.56209 25.7829 1.75108C26.5939 0.940083 27.5771 0.535508 28.7325 0.53736C29.8879 0.539211 30.872 0.944712 31.6849 1.75386C32.4977 2.56301 32.9023 3.54621 32.8986 4.70346C32.8986 5.39781 32.7366 6.04587 32.4126 6.64764C32.0885 7.24941 31.6719 7.73546 31.1627 8.10578L39.8421 19.9792L48.5215 16.0908C48.4289 15.8594 48.3475 15.6048 48.2771 15.327C48.2067 15.0493 48.1725 14.7484 48.1743 14.4244C48.1743 13.2671 48.5798 12.283 49.3908 11.472C50.2018 10.661 51.185 10.2564 52.3404 10.2583C53.4958 10.2601 54.4799 10.6656 55.2928 11.4748C56.1057 12.2839 56.5102 13.2671 56.5065 14.4244C56.5028 15.5816 56.0982 16.5657 55.2928 17.3767C54.4874 18.1877 53.5032 18.5923 52.3404 18.5905C52.2478 18.5905 52.1442 18.5794 52.0294 18.5571C51.9146 18.5349 51.8099 18.5229 51.7155 18.521L48.1743 40.8097H9.29071ZM14.0123 35.2549H43.4527L45.2581 23.6592L37.9674 26.8532L28.7325 14.1466L19.4977 26.8532L12.207 23.6592L14.0123 35.2549Z" fill="url(#paint0_linear_114_1676)"/>
<defs>
<linearGradient id="paint0_linear_114_1676" x1="28.7325" y1="0.537354" x2="28.7325" y2="50.5306" gradientUnits="userSpaceOnUse">
<stop stop-color="#CE613A"/>
<stop offset="1" stop-color="#894C21"/>
</linearGradient>
</defs>
</svg>
