<svg width="88" height="100" viewBox="0 0 88 100" fill="none" xmlns="http://www.w3.org/2000/svg">
<g clip-path="url(#clip0_431_4446)">
<path d="M29.6875 4.6875C29.6875 2.08984 27.5977 0 25 0C22.4023 0 20.3125 2.08984 20.3125 4.6875V12.5H12.5C5.60547 12.5 0 18.1055 0 25V87.5C0 94.3945 5.60547 100 12.5 100H75C81.8945 100 87.5 94.3945 87.5 87.5V25C87.5 18.1055 81.8945 12.5 75 12.5H67.1875V4.6875C67.1875 2.08984 65.0977 0 62.5 0C59.9023 0 57.8125 2.08984 57.8125 4.6875V12.5H29.6875V4.6875ZM9.375 37.5H78.125V87.5C78.125 89.2188 76.7188 90.625 75 90.625H12.5C10.7812 90.625 9.375 89.2188 9.375 87.5V37.5Z" fill="#626262"/>
<path d="M55.75 74.9062V81H31.9375V75.8438L42.9063 64.3125C43.875 63.2031 44.6563 62.2109 45.25 61.3359C45.8438 60.4453 46.2735 59.6406 46.5391 58.9219C46.8203 58.2031 46.961 57.5547 46.961 56.9766C46.961 55.9922 46.8125 55.1719 46.5156 54.5156C46.2344 53.8438 45.8125 53.3359 45.25 52.9922C44.7031 52.6484 44.0235 52.4766 43.211 52.4766C42.3985 52.4766 41.6875 52.7109 41.0781 53.1797C40.4688 53.6484 39.9922 54.2891 39.6485 55.1016C39.3203 55.9141 39.1563 56.8281 39.1563 57.8438H31.2344C31.2344 55.75 31.7422 53.8359 32.7578 52.1016C33.7891 50.3672 35.2188 48.9844 37.0469 47.9531C38.875 46.9062 40.9922 46.3828 43.3985 46.3828C45.9141 46.3828 48.0235 46.7734 49.7266 47.5547C51.4297 48.3359 52.711 49.4688 53.5703 50.9531C54.4453 52.4219 54.8828 54.1953 54.8828 56.2734C54.8828 57.4609 54.6953 58.6016 54.3203 59.6953C53.9453 60.7891 53.4063 61.875 52.7031 62.9531C52 64.0156 51.1406 65.1094 50.125 66.2344C49.125 67.3594 47.9844 68.5547 46.7031 69.8203L42.2969 74.9062H55.75Z" fill="#626262"/>
</g>
<defs>
<clipPath id="clip0_431_4446">
<rect width="87.5" height="100" fill="white"/>
</clipPath>
</defs>
</svg>
