<svg width="88" height="100" viewBox="0 0 88 100" fill="none" xmlns="http://www.w3.org/2000/svg">
<g clip-path="url(#clip0_431_4450)">
<path d="M29.6875 4.6875C29.6875 2.08984 27.5977 0 25 0C22.4023 0 20.3125 2.08984 20.3125 4.6875V12.5H12.5C5.60547 12.5 0 18.1055 0 25V87.5C0 94.3945 5.60547 100 12.5 100H75C81.8945 100 87.5 94.3945 87.5 87.5V25C87.5 18.1055 81.8945 12.5 75 12.5H67.1875V4.6875C67.1875 2.08984 65.0977 0 62.5 0C59.9023 0 57.8125 2.08984 57.8125 4.6875V12.5H29.6875V4.6875ZM9.375 37.5H78.125V87.5C78.125 89.2188 76.7188 90.625 75 90.625H12.5C10.7812 90.625 9.375 89.2188 9.375 87.5V37.5Z" fill="#626262"/>
<path d="M49.4219 46.875V81H41.5235V55.7812L33.7422 58.0547V52.0547L48.6953 46.875H49.4219Z" fill="#626262"/>
</g>
<defs>
<clipPath id="clip0_431_4450">
<rect width="87.5" height="100" fill="white"/>
</clipPath>
</defs>
</svg>
