<svg width="75" height="75" viewBox="0 0 75 75" fill="none" xmlns="http://www.w3.org/2000/svg">
<path d="M12.5 12.5C12.5 10.8424 13.1585 9.25268 14.3306 8.08058C15.5027 6.90848 17.0924 6.25 18.75 6.25H43.75C44.5787 6.25018 45.3735 6.57953 45.9594 7.16562L61.5844 22.7906C62.1705 23.3765 62.4998 24.1713 62.5 25V62.5C62.5 64.1576 61.8415 65.7473 60.6694 66.9194C59.4973 68.0915 57.9076 68.75 56.25 68.75H18.75C17.0924 68.75 15.5027 68.0915 14.3306 66.9194C13.1585 65.7473 12.5 64.1576 12.5 62.5V12.5ZM54.9563 25L43.75 13.7938V25H54.9563ZM37.5 12.5H18.75V62.5H56.25V31.25H40.625C39.7962 31.25 39.0013 30.9208 38.4153 30.3347C37.8292 29.7487 37.5 28.9538 37.5 28.125V12.5ZM25 40.625C25 39.7962 25.3292 39.0013 25.9153 38.4153C26.5013 37.8292 27.2962 37.5 28.125 37.5H46.875C47.7038 37.5 48.4987 37.8292 49.0847 38.4153C49.6708 39.0013 50 39.7962 50 40.625C50 41.4538 49.6708 42.2487 49.0847 42.8347C48.4987 43.4208 47.7038 43.75 46.875 43.75H28.125C27.2962 43.75 26.5013 43.4208 25.9153 42.8347C25.3292 42.2487 25 41.4538 25 40.625ZM25 53.125C25 52.2962 25.3292 51.5013 25.9153 50.9153C26.5013 50.3292 27.2962 50 28.125 50H46.875C47.7038 50 48.4987 50.3292 49.0847 50.9153C49.6708 51.5013 50 52.2962 50 53.125C50 53.9538 49.6708 54.7487 49.0847 55.3347C48.4987 55.9208 47.7038 56.25 46.875 56.25H28.125C27.2962 56.25 26.5013 55.9208 25.9153 55.3347C25.3292 54.7487 25 53.9538 25 53.125Z" fill="#EE3C3C"/>
</svg>
