<svg width="57" height="51" viewBox="0 0 57 51" fill="none" xmlns="http://www.w3.org/2000/svg">
<path d="M8.87125 50.1269V44.5783H47.7114V50.1269H8.87125ZM8.87125 40.4169L5.33401 18.1531C5.24154 18.1531 5.13704 18.1651 5.02052 18.1892C4.904 18.2132 4.80042 18.2243 4.7098 18.2225C3.55384 18.2225 2.57174 17.8174 1.76349 17.0073C0.955243 16.1972 0.550196 15.2151 0.548346 14.061C0.546497 12.9069 0.951544 11.9248 1.76349 11.1147C2.57543 10.3046 3.55754 9.89957 4.7098 9.89957C5.86206 9.89957 6.84508 10.3046 7.65888 11.1147C8.47267 11.9248 8.8768 12.9069 8.87125 14.061C8.87125 14.3847 8.83611 14.6852 8.76582 14.9627C8.69554 15.2401 8.61509 15.4944 8.52446 15.7256L17.1941 19.6096L25.8638 7.74949C25.3552 7.37958 24.9391 6.89408 24.6154 6.29298C24.2917 5.69188 24.1299 5.04455 24.1299 4.35097C24.1299 3.19501 24.5349 2.21199 25.345 1.40189C26.1551 0.591794 27.1372 0.187671 28.2913 0.18952C29.4455 0.19137 30.4285 0.596418 31.2404 1.40466C32.0524 2.21291 32.4565 3.19501 32.4528 4.35097C32.4528 5.04455 32.291 5.69188 31.9673 6.29298C31.6436 6.89408 31.2275 7.37958 30.7189 7.74949L39.3885 19.6096L48.0582 15.7256C47.9658 15.4944 47.8844 15.2401 47.8141 14.9627C47.7438 14.6852 47.7096 14.3847 47.7114 14.061C47.7114 12.9051 48.1165 11.922 48.9266 11.1119C49.7367 10.3018 50.7188 9.89772 51.8729 9.89957C53.027 9.90142 54.01 10.3065 54.822 11.1147C55.6339 11.923 56.038 12.9051 56.0343 14.061C56.0306 15.217 55.6265 16.2 54.822 17.0101C54.0174 17.8202 53.0344 18.2243 51.8729 18.2225C51.7804 18.2225 51.6768 18.2114 51.5622 18.1892C51.4475 18.167 51.343 18.155 51.2487 18.1531L47.7114 40.4169H8.87125ZM13.5876 34.8683H42.9951L44.7984 23.2856L37.5159 26.476L28.2913 13.7836L19.0668 26.476L11.7843 23.2856L13.5876 34.8683Z" fill="url(#paint0_linear_114_1672)"/>
<defs>
<linearGradient id="paint0_linear_114_1672" x1="28.2914" y1="0.189514" x2="28.2914" y2="50.1269" gradientUnits="userSpaceOnUse">
<stop stop-color="#FFE23E"/>
<stop offset="1" stop-color="#D08215"/>
</linearGradient>
</defs>
</svg>
