<svg width="75" height="75" viewBox="0 0 75 75" fill="none" xmlns="http://www.w3.org/2000/svg">
<path d="M62.5 34.375H71.875V40.625H62.5V34.375ZM3.125 34.375H12.5V40.625H3.125V34.375ZM40.625 3.125V12.5H34.375V3.125H40.625ZM15.375 10.9375L22.0313 17.625L17.5938 22.0313L10.9375 15.4062L15.375 10.9375ZM52.9688 17.5938L59.5938 10.9375L64.0625 15.4062L57.4063 22.0313L52.9688 17.5938ZM37.5 18.75C42.4728 18.75 47.242 20.7254 50.7583 24.2418C54.2746 27.7581 56.25 32.5272 56.25 37.5C56.25 44.4375 52.4688 50.5 46.875 53.75V59.375C46.875 60.2038 46.5458 60.9987 45.9597 61.5847C45.3737 62.1708 44.5788 62.5 43.75 62.5H31.25C30.4212 62.5 29.6263 62.1708 29.0403 61.5847C28.4542 60.9987 28.125 60.2038 28.125 59.375V53.75C22.5313 50.5 18.75 44.4375 18.75 37.5C18.75 32.5272 20.7254 27.7581 24.2418 24.2418C27.7581 20.7254 32.5272 18.75 37.5 18.75ZM43.75 65.625V68.75C43.75 69.5788 43.4208 70.3737 42.8347 70.9597C42.2487 71.5458 41.4538 71.875 40.625 71.875H34.375C33.5462 71.875 32.7513 71.5458 32.1653 70.9597C31.5792 70.3737 31.25 69.5788 31.25 68.75V65.625H43.75ZM34.375 56.25H40.625V49.5938C46.0313 48.2188 50 43.3125 50 37.5C50 34.1848 48.683 31.0054 46.3388 28.6612C43.9946 26.317 40.8152 25 37.5 25C34.1848 25 31.0054 26.317 28.6612 28.6612C26.317 31.0054 25 34.1848 25 37.5C25 43.3125 28.9688 48.2188 34.375 49.5938V56.25Z" fill="#FF2828"/>
</svg>
