<svg width="40" height="40" viewBox="0 0 40 40" fill="none" xmlns="http://www.w3.org/2000/svg">
<path d="M20.0008 3.33337C17.8121 3.33337 15.6448 3.76447 13.6227 4.60205C11.6006 5.43963 9.76328 6.66728 8.21564 8.21493C5.09003 11.3405 3.33409 15.5798 3.33409 20C3.32092 23.8484 4.65331 27.5802 7.10075 30.55L3.76742 33.8834C3.53616 34.1177 3.3795 34.4154 3.31721 34.7387C3.25492 35.062 3.28979 35.3965 3.41742 35.7C3.55585 35.9999 3.78026 36.2519 4.06216 36.424C4.34407 36.5961 4.67075 36.6806 5.00075 36.6667H20.0008C24.421 36.6667 28.6603 34.9108 31.7859 31.7852C34.9115 28.6595 36.6674 24.4203 36.6674 20C36.6674 15.5798 34.9115 11.3405 31.7859 8.21493C28.6603 5.08932 24.421 3.33337 20.0008 3.33337ZM20.0008 33.3334H9.01742L10.5674 31.7834C10.8778 31.4711 11.0521 31.0487 11.0521 30.6084C11.0521 30.1681 10.8778 29.7456 10.5674 29.4334C8.38506 27.2534 7.02604 24.3843 6.7219 21.3147C6.41777 18.2451 7.18732 15.1651 8.89947 12.5992C10.6116 10.0334 13.1604 8.14064 16.1116 7.24333C19.0628 6.34602 22.2339 6.49972 25.0844 7.67823C27.935 8.85674 30.2888 10.9872 31.7448 13.7065C33.2008 16.4259 33.6689 19.5659 33.0693 22.5917C32.4697 25.6175 30.8396 28.3418 28.4566 30.3004C26.0737 32.2591 23.0854 33.3309 20.0008 33.3334ZM28.3341 18.3334H11.6674C11.2254 18.3334 10.8015 18.509 10.4889 18.8215C10.1763 19.1341 10.0008 19.558 10.0008 20C10.0008 20.4421 10.1763 20.866 10.4889 21.1786C10.8015 21.4911 11.2254 21.6667 11.6674 21.6667H28.3341C28.7761 21.6667 29.2 21.4911 29.5126 21.1786C29.8252 20.866 30.0008 20.4421 30.0008 20C30.0008 19.558 29.8252 19.1341 29.5126 18.8215C29.2 18.509 28.7761 18.3334 28.3341 18.3334ZM25.0008 25H15.0008C14.5587 25 14.1348 25.1756 13.8222 25.4882C13.5097 25.8008 13.3341 26.2247 13.3341 26.6667C13.3341 27.1087 13.5097 27.5327 13.8222 27.8452C14.1348 28.1578 14.5587 28.3334 15.0008 28.3334H25.0008C25.4428 28.3334 25.8667 28.1578 26.1793 27.8452C26.4918 27.5327 26.6674 27.1087 26.6674 26.6667C26.6674 26.2247 26.4918 25.8008 26.1793 25.4882C25.8667 25.1756 25.4428 25 25.0008 25ZM15.0008 15H25.0008C25.4428 15 25.8667 14.8244 26.1793 14.5119C26.4918 14.1993 26.6674 13.7754 26.6674 13.3334C26.6674 12.8913 26.4918 12.4674 26.1793 12.1549C25.8667 11.8423 25.4428 11.6667 25.0008 11.6667H15.0008C14.5587 11.6667 14.1348 11.8423 13.8222 12.1549C13.5097 12.4674 13.3341 12.8913 13.3341 13.3334C13.3341 13.7754 13.5097 14.1993 13.8222 14.5119C14.1348 14.8244 14.5587 15 15.0008 15Z" fill="#A3A3A3"/>
</svg>
