<svg width="40" height="40" viewBox="0 0 40 40" fill="none" xmlns="http://www.w3.org/2000/svg">
<path d="M16.6667 35H23.3333C23.3333 36.8334 21.8333 38.3334 20 38.3334C18.1667 38.3334 16.6667 36.8334 16.6667 35ZM35 31.6667V33.3334H5V31.6667L8.33333 28.3334V18.3334C8.33333 13.1667 11.6667 8.66671 16.6667 7.16671V6.66671C16.6667 4.83337 18.1667 3.33337 20 3.33337C21.8333 3.33337 23.3333 4.83337 23.3333 6.66671V7.16671C28.3333 8.66671 31.6667 13.1667 31.6667 18.3334V28.3334L35 31.6667ZM28.3333 18.3334C28.3333 13.6667 24.6667 10 20 10C15.3333 10 11.6667 13.6667 11.6667 18.3334V30H28.3333V18.3334Z" fill="#A3A3A3"/>
</svg>
