<svg width="75" height="75" viewBox="0 0 75 75" fill="none" xmlns="http://www.w3.org/2000/svg">
<mask id="mask0_51_416" style="mask-type:luminance" maskUnits="userSpaceOnUse" x="5" y="5" width="65" height="65">
<path d="M57.3219 23.7047C59.3132 26.5596 60.6614 29.8125 61.2734 33.2391H68.75V41.7609H61.2734C60.6614 45.1875 59.3132 48.4404 57.3219 51.2953L62.6109 56.5844L56.5844 62.6109L51.2953 57.3219C48.4404 59.3132 45.1875 60.6614 41.7609 61.2734V68.75H33.2391V61.2734C29.8125 60.6614 26.5596 59.3132 23.7047 57.3219L18.4156 62.6109L12.3891 56.5844L17.6781 51.2953C15.6868 48.4404 14.3386 45.1875 13.7266 41.7609H6.25V33.2391H13.7266C14.3386 29.8125 15.6868 26.5596 17.6781 23.7047L12.3891 18.4156L18.4156 12.3891L23.7047 17.6781C26.5596 15.6868 29.8125 14.3386 33.2391 13.7266V6.25H41.7609V13.7266C45.1875 14.3386 48.4404 15.6868 51.2953 17.6781L56.5844 12.3891L62.6109 18.4156L57.3219 23.7047Z" fill="white" stroke="white" stroke-width="2" stroke-linejoin="round"/>
<path d="M37.5 45.3125C39.572 45.3125 41.5591 44.4894 43.0243 43.0243C44.4894 41.5591 45.3125 39.572 45.3125 37.5C45.3125 35.428 44.4894 33.4409 43.0243 31.9757C41.5591 30.5106 39.572 29.6875 37.5 29.6875C35.428 29.6875 33.4409 30.5106 31.9757 31.9757C30.5106 33.4409 29.6875 35.428 29.6875 37.5C29.6875 39.572 30.5106 41.5591 31.9757 43.0243C33.4409 44.4894 35.428 45.3125 37.5 45.3125Z" fill="black" stroke="black" stroke-width="2" stroke-linejoin="round"/>
</mask>
<g mask="url(#mask0_51_416)">
<path d="M0 0H75V75H0V0Z" fill="#FF2828"/>
</g>
</svg>
