<svg width="57" height="51" viewBox="0 0 57 51" fill="none" xmlns="http://www.w3.org/2000/svg">
<path d="M8.87703 50.2719V44.7211H47.7328V50.2719H8.87703ZM8.87703 40.558L5.33838 18.2853C5.24586 18.2853 5.14132 18.2973 5.02475 18.3213C4.90819 18.3454 4.80457 18.3565 4.71391 18.3546C3.55749 18.3546 2.57499 17.9494 1.76642 17.139C0.957848 16.3286 0.552638 15.3461 0.550788 14.1915C0.548937 13.037 0.954148 12.0545 1.76642 11.244C2.57869 10.4336 3.56119 10.0284 4.71391 10.0284C5.86663 10.0284 6.85005 10.4336 7.66417 11.244C8.4783 12.0545 8.88258 13.037 8.87703 14.1915C8.87703 14.5153 8.84187 14.816 8.77156 15.0935C8.70125 15.3711 8.62077 15.6255 8.5301 15.8568L17.2033 19.7424L25.8764 7.87746C25.3676 7.50741 24.9513 7.02171 24.6275 6.42037C24.3037 5.81903 24.1418 5.17143 24.1418 4.47758C24.1418 3.32116 24.547 2.33774 25.3574 1.52732C26.1679 0.716895 27.1504 0.312609 28.3049 0.314459C29.4595 0.31631 30.4429 0.72152 31.2552 1.53009C32.0675 2.33866 32.4717 3.32116 32.468 4.47758C32.468 5.17143 32.3061 5.81903 31.9823 6.42037C31.6585 7.02171 31.2422 7.50741 30.7334 7.87746L39.4066 19.7424L48.0797 15.8568C47.9872 15.6255 47.9058 15.3711 47.8355 15.0935C47.7652 14.816 47.731 14.5153 47.7328 14.1915C47.7328 13.0351 48.138 12.0517 48.9485 11.2413C49.7589 10.4308 50.7414 10.0266 51.8959 10.0284C53.0505 10.0303 54.0339 10.4355 54.8462 11.244C55.6585 12.0526 56.0628 13.0351 56.0591 14.1915C56.0554 15.348 55.6511 16.3314 54.8462 17.1418C54.0413 17.9522 53.0579 18.3565 51.8959 18.3546C51.8034 18.3546 51.6998 18.3435 51.5851 18.3213C51.4704 18.2991 51.3658 18.2871 51.2715 18.2853L47.7328 40.558H8.87703ZM13.5952 35.0071H43.0146L44.8186 23.4198L37.5332 26.6115L28.3049 13.914L19.0767 26.6115L11.7912 23.4198L13.5952 35.0071Z" fill="url(#paint0_linear_114_1674)"/>
<defs>
<linearGradient id="paint0_linear_114_1674" x1="28.3049" y1="0.314453" x2="28.3049" y2="50.2719" gradientUnits="userSpaceOnUse">
<stop stop-color="#8E8E8E"/>
<stop offset="1" stop-color="#979797"/>
</linearGradient>
</defs>
</svg>
