<?xml version="1.0" encoding="UTF-8"?>
<svg id="Capa_2" data-name="Capa 2" xmlns="http://www.w3.org/2000/svg" viewBox="0 0 384.07 208.35">
  <defs>
    <style>
      .cls-1 {
        fill: #f6f6f6;
      }
    </style>
  </defs>
  <g id="Capa_1-2" data-name="Capa 1">
    <g>
      <path class="cls-1" d="M220.21,201.61l-.12-14.36c.06-.89,1.02-.77,1.5-1.32,2.61-2.93,1.66-14.5,1.61-18.35-.08-6.38-.06-12.77-.14-19.15l-8.11-.1.4,49.99c0,.82-14.82,3.13-16.29,3.88l-.43-54.07-6.62-.08.42,52.25-16.62,2.86c-.27.08-.79-.29-.79-.43l-.42-51.89,5.2-3.26-6.54-.08,4.14-15.41,21.11.58-.04-4.79,16.33.37.04,4.86,16.83.46c.17,0,2.08.74,2.39.91,5.22,2.7,4,10.62,3.69,15.42-.85,11.07,1.5,24.51.27,35.31-.65,5.72-4.65,13.81-10.73,15.25l-3.19.95-3.88.17Z"/>
      <path class="cls-1" d="M147.96,146.87l-32.44-.41.34,41.84,32.43-.85-.33-40.58ZM115.39,130.07l.05,6.36c1.64-.99,3.25-5.97,4.9-6.22l38.2,1.12c4.03,2.02,5.13,6.6,5.67,10.52,2.35,16.89-.6,36.5.82,53.65-.24,4.9-4.58,7.04-9.23,7.57-15.12,1.74-32.28.45-48.53,2.01-5.56-.2-8.66-3.15-9.66-7.95l-.51-63.65.64-.77,17.65-2.64Z"/>
      <path class="cls-1" d="M324.26,148.82l2.08-12.87,27.97.73c5.59,1.14,7.01,8.34,7.06,13.91l-9.52,1.99c.28-1.59-1.66-3.42-2.84-3.44l-11.1-.14c3.31,3.99,6.68,7.88,10.05,11.7,3.62,4.1,7.28,8.11,10.83,12.18,1.9,2.18,3.35,2.89,3.68,6.53,1.96,21.3-16.92,14.76-28.91,16.51-5.27-1.67-7.59-8.2-8.55-13.86,1.34-.33,10.14-4.42,10.56-4.02.23,1.75.79,4.08,2.54,4.4,1.73.31,9.16.11,10.94-.21,1.09-.2,1.14-.83.63-1.84-7.58-8.7-15.51-17.37-23.61-26.14v-.81s5.05-4.51,5.05-4.51l-6.88-.09Z"/>
      <path class="cls-1" d="M318.52,153.64l-10.55-.08c-.17-2.53-1.46-3.95-3.71-4.37l-16.25-.27c-.33,0-.44.2-.62.44-.76,1.07-2.1,5.21-2.58,6.71-2.24,6.98-3.33,12.58.29,19.35,2.45,4.6,6.35,8.71,11.42,9.01,7.09.42,11.33-2.43,15.22-8.64l7,9.59c.12.33-.04.51-.19.77-.55.94-2.88,3.18-3.77,4.05-4,3.92-7.38,6.41-12.84,7.37-21.19,3.74-33.29-15.45-30.59-37.22.21-1.69.93-6.64,2.21-7.58l8.04-3.93-9.84-.12c.31-4.87,1.57-9.64,3.55-13.94l31.89.88c7.6,1.75,11.55,9.97,11.31,17.98Z"/>
      <path class="cls-1" d="M87.68,151.95l-16.88-.12c-.26-3.21-2.33-5.01-5.96-5.56l-26.27-.42c-.54,0-.72.25-1.01.56-1.13,1.23-3.07,5.76-3.81,7.47-4.86,11.26-6.21,19.74,3.04,29.62,6.28,6.71,13.32,8.48,23.2,7.27,7.02-.86,12.91-6.09,16.77-10.82l11.17,12.07c.19.42-.06.64-.3.97-.87,1.19-4.6,4.05-6.02,5.16-6.41,5.01-11.84,8.2-20.64,9.51-34.32,5.08-54.22-19.34-49.64-47.24.36-2.17,1.53-8.5,3.65-9.71l13.15-5-16.1-.2c.56-6.17,2.53-12.44,5.84-17.76l51.73,1.37c12.14,2.26,18.38,12.76,18.06,22.81Z"/>
      <polygon class="cls-1" points="261.86 133.84 262.38 198.65 248.45 199.23 247.94 135.95 261.86 133.84"/>
      <path class="cls-1" d="M46.88,38.42l-27.97.97.21,25.79,22.83-9.62c2.08-.96,5.04-4.44,5.02-6.7l-.08-10.45ZM0,19.97l57.35-2.37c4.69.26,7.52,3.35,9,7.45l.03,28.16c-.74,3.35-1.72,7.16-3.61,10.1-3.12,4.85-10.48,7.51-15.38,10.15-.02.29.11.51.22.76.91,2.02,4.14,6.57,5.58,8.5,4.04,5.44,9.74,9.14,16.81,9.66l-1.38,21.04c-.32.27-7.33-1.01-8.38-1.22-5.66-1.1-8.44-2.09-12.81-5.83-7.48-6.39-12.98-16.06-17.35-24.62l-10.78,5.2.19,23.97-18.75.17L.2,44.87l8.45-5.01-8.49.17-.16-20.06Z"/>
      <path class="cls-1" d="M359.15,95.57l-4.23,12.7c-.36.43-4.19,1.17-5.06,1.26-11.66,1.15-30.91-1.17-39.93-7.96-20.77-15.62-23.37-53.16-22.42-75.89l1.49-14.87,25.08-5.04-2.19,24.69c-1.16,14.69.06,39.46,13.75,49.62,7.97,5.91,23.72,3.53,33.41,2.12l-.62-77.2,24.85.47.8,99.4-24.82,2.43-.09-11.73Z"/>
      <path class="cls-1" d="M146.65,13.84l-5.75,21.29-35.55,1.51.08,10.28,39.06-1.21-3.32,19.15-36,1.12c-.22,5.9-1.13,15.64,2.81,20.51,1.29,1.6,4.66,3.71,6.81,3.68l29.25-.47-3.31,20.11c-7.74-.15-15.51.43-23.17.22-10.61-.29-15.35-.83-22.86-8.17-4.1-4-6.57-8.56-7.92-14.04-1.74-7.05-.8-14.4-1.12-21.61l-11.77.29,2.66-18.69,9.73-.3-.09-10.71-12.54.43,3.15-20.48,69.83-2.92Z"/>
      <path class="cls-1" d="M280.04,8.54l-2.53,21.84c-16.63,8.87-31.29,20.98-41.71,35.51-4.62,6.44-9.1,14-9.8,21.74l32.42-.52c1.35-.02,5.77-3.64,6.75-4.75.77-.86,2.02-3.23,2.45-3.61.17-.15.29-.32.57-.28l17.8,10.24c-4.96,10.5-10.95,19.1-24.49,20.05-2.93.21-5.86-.21-8.65-.21-12.22.02-24.37.17-36.4.34-1.2.02-2.16.35-3.6.27-12.32-.72-12.69-15-11.49-23.54,1.66-11.75,19.05-33.52,27.95-42.64,3.55-3.64,7.45-6.74,11.16-10.18.47-.43,1.25-.98,1.26-1.63l-41.96,1.46,7.35-21.04,72.9-3.04Z"/>
      <path class="cls-1" d="M194.9,11.83l-3.01,20.8-6.48.23.46,56.71,8.55-.13-.95,19.92-41.17.37,1.72-19.91c2.02.03,4.06-.13,6.08-.11.49,0,2.84.6,2.83-.16l-.41-51.03,8.93-5.17-19.49.68,1.99-20.48,40.95-1.71Z"/>
      <path class="cls-1" d="M331.45,28.8c.04,1.03.19,2.07.59,3.03.89,2.13,3.3,3.81,5.65,3.4,1.49-.26,2.94-1.12,3.82-2.35,2.04,1.4,2.84,4.18,2.18,6.53,0,.08.17.05.17.04.08-.08.52-1.41.57-1.63.73-2.93-.18-5.69-1.74-8.15-1-1.57-2.38-2.74-3.3-4.35-3.14-5.47-2.2-11.99.52-17.41l.73-1.22c.12,3.47,1.43,6.98,2.96,10.07,2.7,5.46,7.1,9.12,6.54,15.83-.48,5.7-3.59,9.96-9.43,10.86-3.91.6-9.03.03-11.55-3.37-2.78-3.76-1.39-8.76,2.29-11.28Z"/>
      <path class="cls-1" d="M323.43,20.67s-.02.24-.12.09c1.27-2.76,4-4.39,5.8-6.78,2.58-3.42,3.74-7.38,3.43-11.68-.06-.76-.31-1.53-.32-2.3,1.82,2.33,3.58,5.19,4,8.18.55,3.88-1.65,6.92-5.07,8.5-.95.44-1.97.68-2.94,1.07-1.69.68-3.44,1.68-4.78,2.92Z"/>
      <path class="cls-1" d="M336.11,15.23c.11,3.43-1.99,6.55-4.22,8.97-1.41,1.52-2.95,2.58-4.21,4.29-2.8,3.8-4.12,8.49-1.64,12.84.44.77,1.03,1.41,1.5,2.15-4.94-2.84-8.32-7.85-7.07-13.75.83-3.91,3.42-6.91,6.84-8.84,3.22-1.82,6.83-1.73,8.62-5.47.06-.12-.06-.24.19-.19Z"/>
    </g>
  </g>
</svg>