<?xml version="1.0" encoding="UTF-8"?>
<svg id="Capa_2" data-name="Capa 2" xmlns="http://www.w3.org/2000/svg" xmlns:xlink="http://www.w3.org/1999/xlink" viewBox="0 0 110.45 59.38">
  <defs>
    <style>
      .cls-1 {
        fill: #ff3131;
      }

      .cls-2 {
        filter: url(#outer-glow-1);
      }
    </style>
    <filter id="outer-glow-1" x="0" y="0" width="110.45" height="59.38" filterUnits="userSpaceOnUse">
      <feOffset dx="0" dy="0"/>
      <feGaussianBlur result="blur" stdDeviation="5"/>
      <feFlood flood-color="#fff" flood-opacity="1"/>
      <feComposite in2="blur" operator="in"/>
      <feComposite in="SourceGraphic"/>
    </filter>
  </defs>
  <g id="Capa_1-2" data-name="Capa 1">
    <g class="cls-2">
      <g>
        <g>
          <path class="cls-1" d="M0,4.98l16.53-.55c1.35.09,2.16.98,2.58,2.17l-.06,8.11c-.22.96-.51,2.06-1.06,2.9-.91,1.39-3.04,2.14-4.46,2.89,0,.08.03.15.06.22.26.58,1.18,1.9,1.59,2.46,1.15,1.58,2.78,2.66,4.82,2.82l-.45,6.06c-.09.08-2.11-.31-2.41-.37-1.63-.33-2.43-.62-3.68-1.71-2.14-1.86-3.7-4.66-4.94-7.13l-3.12,1.47v6.91H0S0,12.16,0,12.16l2.45-1.42-2.45.03v-5.78ZM13.46,10.41l-8.06.21v7.43l6.6-2.72c.6-.27,1.46-1.27,1.46-1.92v-3.01Z"/>
          <path class="cls-1" d="M103.3,27.6l-1.25,3.65c-.1.12-1.21.33-1.46.35-3.36.3-8.9-.41-11.49-2.39-5.95-4.55-6.61-15.37-6.28-21.91l.46-4.28,7.24-1.39-.69,7.11c-.37,4.23-.07,11.37,3.85,14.33,2.28,1.72,6.83,1.07,9.62.69V1.5l7.16.19v28.64l-7.16.64v-3.38Z"/>
          <path class="cls-1" d="M42.27,3.56l-1.71,6.12-10.25.35v2.96l11.26-.26-1,5.51-10.37.24c-.08,1.7-.36,4.5.76,5.92.37.46,1.33,1.08,1.95,1.08l8.43-.07-1,5.79c-2.23-.06-4.47.09-6.68.01-3.06-.11-4.42-.28-6.57-2.41-1.17-1.16-1.87-2.48-2.25-4.06-.49-2.03-.2-4.15-.27-6.23l-3.39.06.81-5.38,2.8-.06v-3.09l-3.61.1.96-5.89,20.13-.68Z"/>
          <path class="cls-1" d="M80.71,2.34l-.78,6.29c-4.81,2.52-9.06,5.97-12.1,10.13-1.34,1.84-2.65,4.01-2.87,6.24l9.34-.08c.39,0,1.67-1.04,1.96-1.35.22-.25.59-.93.71-1.04.05-.04.08-.09.17-.08l5.1,2.99c-1.45,3.01-3.2,5.48-7.1,5.72-.85.05-1.69-.08-2.49-.08-3.52-.02-7.02,0-10.49.01-.34,0-.62.1-1.04.07-3.55-.24-3.62-4.35-3.25-6.81.51-3.38,5.57-9.61,8.15-12.22,1.03-1.04,2.16-1.93,3.24-2.91.14-.12.36-.28.37-.47l-12.09.32,2.17-6.04,21.01-.71Z"/>
          <path class="cls-1" d="M56.17,3.09l-.92,5.99-1.87.05v16.34l2.46-.02-.32,5.74h-11.86s.54-5.72.54-5.72c.58.01,1.17-.03,1.75-.02.14,0,.82.18.82-.04v-14.7l2.58-1.47-5.62.15.62-5.9,11.8-.4Z"/>
        </g>
        <g>
          <path class="cls-1" d="M63.02,57.82v-4.14c.02-.25.29-.22.44-.38.76-.84.51-4.17.51-5.28,0-1.84.01-3.68,0-5.52l-2.34-.05v14.4c0,.24-4.28.87-4.7,1.08v-15.58l-1.91-.04v15.05l-4.79.79c-.08.02-.23-.09-.23-.12v-14.95l1.51-.93-1.88-.04,1.23-4.43,6.08.22v-1.38l4.7.15v1.4l4.85.17s.6.22.69.27c1.5.79,1.13,3.07,1.03,4.45-.27,3.19.38,7.06,0,10.17-.2,1.65-1.37,3.97-3.13,4.37l-.92.27-1.12.04Z"/>
          <path class="cls-1" d="M32.99,36.97v1.83c.48-.28.95-1.71,1.42-1.78l11,.41c1.16.59,1.46,1.91,1.61,3.04.64,4.87-.26,10.51.11,15.46-.08,1.41-1.33,2.02-2.68,2.16-4.36.47-9.3.06-13.99.47-1.6-.07-2.49-.93-2.76-2.31v-18.34s.19-.22.19-.22l5.09-.72ZM42.33,41.89l-9.34-.19v12.05l9.34-.17v-11.69Z"/>
          <path class="cls-1" d="M93.12,42.86l.63-3.7,8.06.27c1.61.34,2,2.42,2,4.02l-2.75.55c.08-.46-.47-.99-.81-1l-3.2-.07c.95,1.16,1.91,2.29,2.87,3.39,1.03,1.19,2.08,2.35,3.09,3.54.54.63.96.84,1.05,1.89.51,6.14-4.91,4.21-8.37,4.69-1.51-.49-2.17-2.38-2.43-4.01.39-.09,2.93-1.25,3.05-1.13.06.5.22,1.18.72,1.27s2.64.05,3.15-.04c.31-.05.33-.24.19-.53-2.16-2.52-4.43-5.04-6.74-7.59v-.23s1.47-1.29,1.47-1.29l-1.98-.04Z"/>
          <path class="cls-1" d="M91.46,44.23l-3.04-.05c-.04-.73-.41-1.14-1.06-1.27l-4.68-.12c-.1,0-.13.06-.18.13-.22.31-.62,1.5-.76,1.93-.66,2-.99,3.62.04,5.57.7,1.33,1.81,2.52,3.27,2.62,2.04.14,3.27-.67,4.4-2.45l2,2.78c.03.1-.01.15-.06.22-.16.27-.84.91-1.09,1.16-1.16,1.12-2.14,1.83-3.72,2.09-6.11,1.03-9.55-4.53-8.73-10.79.06-.49.28-1.91.66-2.18l2.32-1.11-2.84-.06c.1-1.4.47-2.77,1.06-4.01l9.19.33c2.18.52,3.3,2.9,3.22,5.21Z"/>
          <path class="cls-1" d="M24.95,43.21l-4.86-.07c-.07-.93-.66-1.45-1.7-1.62l-7.57-.18c-.16,0-.21.07-.29.16-.33.35-.9,1.65-1.11,2.14-1.42,3.23-1.84,5.67.81,8.54,1.79,1.95,3.82,2.48,6.67,2.15,2.02-.23,3.73-1.72,4.86-3.08l3.19,3.5c.05.12-.02.19-.09.28-.25.34-1.33,1.16-1.75,1.47-1.86,1.43-3.43,2.34-5.97,2.69-9.9,1.38-15.58-5.7-14.19-13.73.11-.62.46-2.45,1.07-2.79l3.8-1.41-4.64-.09c.18-1.78.76-3.58,1.72-5.1l14.9.51c3.49.68,5.27,3.72,5.15,6.61Z"/>
          <polygon class="cls-1" points="75.18 38.4 75.18 57.07 71.16 57.2 71.16 38.97 75.18 38.4"/>
        </g>
      </g>
      <g>
        <path class="cls-1" d="M95.47,8.3c0,.3.05.6.16.87.25.62.94,1.11,1.62.99.43-.07.85-.32,1.11-.67.58.41.81,1.21.61,1.89,0,.02.05.01.05.01.02-.02.15-.41.17-.47.22-.84-.04-1.64-.48-2.35-.28-.46-.68-.8-.94-1.26-.89-1.58-.61-3.46.19-5.02l.21-.35c.03,1,.4,2.01.83,2.91.77,1.58,2.02,2.64,1.85,4.58-.15,1.64-1.06,2.86-2.74,3.11-1.13.16-2.6-.01-3.32-1-.79-1.09-.38-2.53.68-3.25Z"/>
        <path class="cls-1" d="M93.18,5.93s0,.07-.03.03c.37-.79,1.16-1.26,1.69-1.94.75-.98,1.1-2.12,1.02-3.36-.01-.22-.09-.44-.09-.66.52.68,1.02,1.5,1.13,2.36.15,1.12-.49,1.99-1.48,2.44-.27.12-.57.19-.85.3-.49.19-1,.48-1.38.83Z"/>
        <path class="cls-1" d="M96.85,4.4c.03.99-.59,1.88-1.24,2.57-.41.43-.86.74-1.22,1.23-.82,1.09-1.21,2.44-.5,3.7.12.22.29.41.43.62-1.42-.83-2.38-2.28-2.01-3.98.25-1.12,1-1.98,1.99-2.53.93-.52,1.97-.48,2.49-1.56.02-.03-.02-.07.06-.05Z"/>
      </g>
    </g>
  </g>
</svg>